<?xml version="1.0" encoding="UTF-8" standalone="no"?>
<!-- Created with Inkscape (http://www.inkscape.org/) -->

<svg
   version="1.1"
   id="svg1"
   width="50"
   height="50"
   viewBox="0 0 49.804688 49.804688"
   sodipodi:docname="icon.svg"
   inkscape:version="1.4 (86a8ad7, 2024-10-11)"
   xmlns:inkscape="http://www.inkscape.org/namespaces/inkscape"
   xmlns:sodipodi="http://sodipodi.sourceforge.net/DTD/sodipodi-0.dtd"
   xmlns="http://www.w3.org/2000/svg"
   xmlns:svg="http://www.w3.org/2000/svg">
  <defs
     id="defs1" />
  <sodipodi:namedview
     id="namedview1"
     pagecolor="#ffffff"
     bordercolor="#000000"
     borderopacity="0"
     inkscape:showpageshadow="true"
     inkscape:pageopacity="0.0"
     inkscape:pagecheckerboard="true"
     inkscape:deskcolor="#d1d1d1"
     showgrid="false"
     inkscape:zoom="8.640625"
     inkscape:cx="27.081374"
     inkscape:cy="23.088608"
     inkscape:window-width="1366"
     inkscape:window-height="745"
     inkscape:window-x="-8"
     inkscape:window-y="-8"
     inkscape:window-maximized="1"
     inkscape:current-layer="g1"
     showborder="false"
     borderlayer="true"
     inkscape:antialias-rendering="true" />
  <g
     inkscape:groupmode="layer"
     inkscape:label="Image"
     id="g1">
    <path
       style="fill:#000000;stroke-width:0.0864048"
       d="m 24.475513,44.099206 c -0.125093,-2.758001 -1.028691,-4.906043 -2.837172,-6.744548 -1.933119,-1.965222 -4.350204,-3.086224 -6.975202,-3.234999 -2.576203,-0.145999 -4.661797,1.020873 -5.2844584,2.956618 -0.5318282,1.653358 0.092922,3.235211 1.6846074,4.265379 0.542105,0.350855 0.613296,0.307865 0.203626,-0.122972 -0.709987,-0.746673 -0.948458,-1.663431 -0.678877,-2.609813 0.397288,-1.394721 1.691324,-2.180004 3.604685,-2.187484 1.441414,-0.0057 2.673757,0.316367 4.249452,1.11037 1.652179,0.83254 3.26803,2.251196 4.205734,3.692469 0.520644,0.800236 1.238117,2.281609 1.561439,3.223906 0.135857,0.395948 0.262235,0.72001 0.280839,0.72013 0.01861,0 0.012,-0.480952 -0.01467,-1.069056 z m 1.475256,-0.763776 c 0.641423,-1.503291 1.765586,-3.150627 2.795927,-4.097113 1.072145,-0.984893 2.500932,-1.831846 3.890906,-2.30645 1.259984,-0.430227 1.874979,-0.522255 3.142376,-0.470258 1.334302,0.05474 1.833656,0.230626 2.56034,0.901751 0.668789,0.617662 0.907231,1.154356 0.908148,2.044087 8.83e-4,0.803876 -0.197581,1.244506 -0.839336,1.864031 l -0.438979,0.423764 0.350617,-0.178783 c 1.934976,-0.986701 2.725571,-2.962982 1.915083,-4.787216 -0.17553,-0.395084 -0.424785,-0.740728 -0.830594,-1.151805 -1.691077,-1.71302 -4.735746,-1.957262 -7.84988,-0.629716 -2.17714,0.928112 -4.275833,2.872716 -5.2624,4.87604 -0.672814,1.366214 -1.025819,2.928376 -1.020378,4.515484 l 0.0027,0.785603 0.198072,-0.567379 c 0.10894,-0.312058 0.323771,-0.861976 0.477401,-1.22204 z m 1.501673,0.5892 c 0.610669,-0.947575 2.019349,-2.171758 2.985309,-2.594328 1.108668,-0.485006 2.439135,-0.608852 3.127588,-0.291131 0.605602,0.279478 0.812538,0.563752 0.812538,1.116163 0,0.493817 0.05656,0.527394 0.248921,0.147771 0.339501,-0.670019 0.232644,-1.554576 -0.254238,-2.104571 -0.85735,-0.968491 -2.536262,-0.99274 -4.042011,-0.05838 -0.986598,0.612212 -1.835564,1.547387 -2.580368,2.8424 -0.25976,0.451658 -0.631708,1.313043 -0.566968,1.313043 0.01659,0 0.137736,-0.166933 0.269229,-0.37097 z m -5.147886,-0.337269 c -0.475156,-1.138819 -1.202701,-2.117243 -2.138985,-2.876569 -1.457977,-1.182415 -2.875625,-1.553844 -4.069664,-1.06626 -0.415133,0.169514 -0.978654,0.822362 -1.096996,1.270887 -0.113432,0.429911 -0.03289,1.089014 0.172021,1.407815 l 0.153532,0.238853 0.04214,-0.447512 c 0.07876,-0.836541 0.690953,-1.232922 1.904211,-1.232922 0.997896,0 1.899517,0.295491 2.909035,0.953386 0.72065,0.469634 1.773689,1.489584 2.071343,2.006245 0.118796,0.2062 0.231734,0.358855 0.250973,0.339225 0.01923,-0.01966 -0.06968,-0.286556 -0.197604,-0.593148 z m 24.279193,-4.997466 c 0.626912,-0.921775 0.871477,-2.09434 0.666683,-3.196409 -0.289106,-1.555786 -1.713186,-3.040093 -3.46422,-3.610715 -1.083875,-0.353213 -2.736938,-0.493328 -4.071527,-0.345103 l -0.54711,0.06078 1.039404,0.108403 c 1.10111,0.114838 2.028751,0.385527 2.787824,0.813495 1.632402,0.920369 2.834243,2.400354 3.229268,3.976637 0.196776,0.785204 0.219006,1.847373 0.04883,2.333989 -0.06295,0.180033 -0.09013,0.326869 -0.0604,0.326301 0.02974,-8.86e-4 0.196791,-0.210888 0.371228,-0.467368 z M 3.4453463,38.490849 C 3.3395352,37.945906 3.4129232,36.804671 3.5942676,36.175014 3.8680348,35.224452 4.3039762,34.523246 5.1662973,33.646407 6.4217907,32.369787 7.59806,31.821362 9.5500725,31.60252 L 10.51492,31.494344 9.7455208,31.423514 c -1.683812,-0.155015 -3.4833639,0.121366 -4.6143306,0.708669 -1.405807,0.730037 -2.2266731,1.721311 -2.5596138,3.090991 -0.2300273,0.946303 -0.1510847,1.796928 0.2496743,2.690291 0.2070292,0.461514 0.6247452,1.099566 0.6817595,1.041379 0.014887,-0.0152 -0.011062,-0.22399 -0.057664,-0.464 z M 27.117503,34.828275 c 0.996179,-1.7619 2.750905,-3.749904 4.435732,-5.025417 0.439139,-0.332446 1.542996,-1.111575 2.453016,-1.731393 0.910019,-0.619818 1.94188,-1.386028 2.293024,-1.702693 1.577669,-1.422759 2.826753,-3.287957 3.330846,-4.973769 0.244715,-0.818391 0.225243,-0.820005 -0.152437,-0.01263 -0.587515,1.255942 -1.798974,2.726911 -3.132609,3.80364 -0.755167,0.609693 -1.833012,1.348128 -3.228076,2.211568 -3.96794,2.455845 -5.872272,4.734887 -6.680147,7.994596 -0.357612,1.442931 -0.36146,1.62553 -0.01755,0.832716 0.165775,-0.38215 0.479963,-1.010626 0.698198,-1.396617 z m -2.027677,0.605076 c 0.146995,-1.039432 0.40841,-3.424389 0.784285,-7.155187 0.153534,-1.523934 0.588885,-4.587116 0.812576,-5.717397 0.678215,-3.426912 1.296153,-4.734205 3.280173,-6.939436 1.407583,-1.564523 1.792089,-2.324701 1.867045,-3.691195 0.02954,-0.538621 0.07638,-0.799911 0.139562,-0.778621 0.136377,0.04597 0.774436,1.384421 1.072249,2.249259 0.936949,2.720843 0.992007,4.980726 0.165082,6.7757 -0.2902,0.629934 -0.840095,1.237489 -2.584126,2.855092 -1.291064,1.197476 -2.108796,2.320983 -2.960994,4.068202 -0.50438,1.034109 -0.490791,1.034109 0.232778,0 1.461134,-2.08821 3.559903,-4.279658 5.36882,-5.605893 0.235918,-0.172971 1.140402,-0.75371 2.009961,-1.290526 2.091596,-1.291249 2.849188,-1.949204 3.607278,-3.132888 0.51763,-0.808231 0.852213,-1.874442 0.869448,-2.77066 0.0067,-0.352479 0.0401,-0.641238 0.07404,-0.641666 0.136844,-0.0017 0.773487,1.547817 1.003461,2.442392 0.513167,1.996167 0.568679,4.504228 0.135192,6.108032 -0.555813,2.056368 -1.83965,3.976147 -3.590686,5.369308 -0.378826,0.301398 -1.381569,1.009551 -2.228319,1.573679 -1.625296,1.082806 -3.136855,2.212153 -3.848864,2.875651 l -0.427653,0.398507 0.684244,-0.470381 c 2.29249,-1.575968 5.913549,-3.421317 8.479694,-4.321383 3.517081,-1.233605 6.622518,-0.853996 8.392873,1.025945 0.474223,0.503576 1.040116,1.534602 1.054557,1.921334 l 0.0085,0.228311 0.06848,-0.218221 c 0.20149,-0.642085 0.01603,-1.851416 -0.404993,-2.640878 -0.476169,-0.892865 -1.713703,-1.776967 -2.973456,-2.124262 -0.282249,-0.07781 -0.938488,-0.161606 -1.458309,-0.186213 l -0.945126,-0.04472 0.192504,-0.874037 C 44.648015,21.643257 44.71962,19.203875 44.210398,16.535038 42.932672,9.8383121 38.382448,4.2825474 32.025796,1.6577555 29.467671,0.60146101 26.912249,0.14145037 24.157006,0.24126535 18.183181,0.45768798 12.568634,3.564739 8.9321049,8.6666121 6.9866922,11.395923 5.8578605,14.258898 5.4155699,17.585323 c -0.1643443,1.236013 -0.1426661,4.018361 0.040752,5.230649 0.1278213,0.844822 0.3848108,2.117175 0.5322317,2.635074 0.034715,0.121952 -0.09403,0.146925 -0.9669451,0.187541 -2.9551636,0.137505 -4.89862141,1.846344 -4.89862141,4.307249 0,0.37213 0.0362215,0.645473 0.0855303,0.645473 0.047042,0 0.0855303,-0.05437 0.0855303,-0.120824 0,-0.06645 0.15536742,-0.437621 0.34526215,-0.824815 0.57617076,-1.174817 1.67494896,-2.022782 3.20810126,-2.47579 0.593453,-0.175355 0.8661699,-0.200738 2.1344027,-0.19867 1.2905866,0.0021 1.5570248,0.02882 2.370482,0.237626 1.0423706,0.267575 2.4791832,0.802819 3.9159962,1.458801 1.92534,0.87902 4.98014,2.576068 5.816062,3.231018 0.49337,0.386566 0.58171,0.387115 0.17106,10e-4 C 17.635654,31.317073 16.620353,30.563433 14.75851,29.303999 12.780513,27.965994 11.849322,27.229218 11.123754,26.428137 9.917372,25.096194 9.2712356,23.931966 8.7836062,22.211596 8.6116522,21.604942 8.5652265,21.207019 8.5290068,20.029384 8.4598734,17.781644 8.7901194,15.956486 9.5556217,14.355632 l 0.3547901,-0.741953 0.071712,0.784391 c 0.1377452,1.506688 0.6760402,2.678702 1.7277382,3.761769 0.649634,0.669006 1.259468,1.109403 3.012783,2.175692 1.70166,1.034875 2.833587,1.937193 4.262992,3.398272 1.388832,1.419607 2.342745,2.53697 2.975372,3.485211 0.219923,0.329637 0.399861,0.571252 0.399861,0.536921 0,-0.128663 -0.804449,-1.682931 -1.175422,-2.27102 -0.627335,-0.994488 -1.534767,-2.019226 -2.594155,-2.929524 -1.201848,-1.032711 -1.589295,-1.470243 -1.985646,-2.242337 -0.410717,-0.800068 -0.570679,-1.459491 -0.629932,-2.596815 -0.05935,-1.139055 0.148307,-2.573527 0.564469,-3.899414 0.268135,-0.854266 1.091056,-2.611662 1.247148,-2.663355 0.05299,-0.01755 0.07595,0.101159 0.05786,0.299025 -0.04284,0.468564 0.194219,1.531275 0.480267,2.152971 0.253315,0.550563 0.89596,1.421204 1.783129,2.415761 2.322573,2.603703 2.987998,4.958746 3.919512,13.871756 0.405858,3.883362 0.783542,6.867808 0.85934,6.790453 0.01646,-0.0168 0.107529,-0.579333 0.202384,-1.250103 z m -0.31635,-9.468332 c -0.133084,-1.775956 -0.379996,-3.578768 -0.6635,-4.844512 -0.388474,-1.734397 -0.739935,-2.592948 -1.657831,-4.049793 -0.78283,-1.242474 -0.997294,-1.682564 -1.157092,-2.374422 -0.386806,-1.674699 0.01854,-3.196366 1.429271,-5.3655019 0.948461,-1.4583548 1.458757,-2.3970729 1.88622,-3.4698397 0.111287,-0.2792888 0.237588,-0.49977 0.280669,-0.4899677 0.04308,0.0098 0.197244,0.3168739 0.342584,0.6823781 0.40888,1.0282486 0.755435,1.6798221 1.554578,2.9228547 1.326202,2.0628455 1.816205,3.2729615 1.816205,4.4853015 0,1.157228 -0.29407,2.025276 -1.109438,3.27489 -0.784753,1.202697 -1.142028,1.913425 -1.493536,2.9711 -0.564655,1.699028 -0.794218,3.186135 -1.060286,6.868531 l -0.05992,0.829241 z m -1.33995,9.944805 c -0.403346,-2.136832 -1.341506,-3.91736 -2.881842,-5.469437 -1.293512,-1.303365 -2.160805,-1.94429 -5.289833,-3.909118 -2.556914,-1.605577 -4.39881,-3.585218 -5.15003,-5.535174 -0.1486237,-0.385781 -0.2816171,-0.689798 -0.2955418,-0.675587 -0.039272,0.04008 0.2694438,1.082892 0.5173698,1.747629 0.50492,1.353784 1.785401,3.12601 3.086538,4.271874 0.374815,0.330081 1.356275,1.056399 2.181023,1.614051 2.318673,1.567745 3.377874,2.403409 4.496773,3.54777 1.442176,1.474984 2.535428,3.045662 3.150633,4.526504 0.135386,0.325881 0.259922,0.578469 0.276746,0.56129 0.01682,-0.01717 -0.0245,-0.323081 -0.09183,-0.679802 z M 4.0342068,31.384911 C 5.5014731,30.4953 7.4976003,30.11371 9.6217894,30.316752 c 1.8254986,0.174489 3.6968126,0.631288 4.9493696,1.208177 1.24147,0.571776 1.358776,0.555968 0.305806,-0.04121 -0.329293,-0.186752 -0.771911,-0.439662 -0.983599,-0.562014 -1.480537,-0.855715 -3.680708,-1.533318 -5.4739404,-1.685847 -1.4497305,-0.123322 -3.5361754,0.309088 -4.3924075,0.910297 -0.7564817,0.531176 -1.4418379,1.533843 -1.6467242,2.409146 -0.057672,0.246379 -0.027749,0.229926 0.505925,-0.278206 0.3119717,-0.297035 0.828566,-0.698526 1.1479879,-0.892184 z m 43.2895152,0.990907 c -0.508819,-1.885615 -2.145999,-2.933198 -4.905996,-3.1392 -2.038301,-0.152135 -4.686674,0.59811 -7.271449,2.059895 -1.006226,0.569051 -1.323429,0.799921 -0.7684,0.559257 1.547563,-0.67103 1.903225,-0.797267 2.981456,-1.058268 2.754295,-0.666719 4.533099,-0.720872 6.542813,-0.199192 1.176914,0.305501 2.855214,1.321198 3.335384,2.018565 0.164362,0.238698 0.193591,0.156953 0.08619,-0.241057 z M 21.175626,29.386728 C 20.939216,29.0479 19.933055,27.999975 19.367306,27.503348 18.758884,26.969264 17.692885,26.228691 16.459276,25.483081 14.977077,24.587223 13.6091,23.647928 13.059439,23.148647 12.788953,22.902955 12.436181,22.581794 12.275501,22.43495 l -0.292147,-0.26698 0.176408,0.261864 c 0.09703,0.144027 0.594134,0.675177 1.104685,1.180342 0.950247,0.94021 1.977609,1.702893 3.665246,2.720966 1.878497,1.133213 2.805183,1.805527 3.806098,2.761363 0.305771,0.291997 0.56819,0.532643 0.583153,0.534764 0.01497,0.0021 -0.04953,-0.106116 -0.143318,-0.240541 z M 29.12776,28.98803 c 0.736042,-0.679778 2.212578,-1.738211 3.924397,-2.813152 1.893736,-1.189175 2.658247,-1.77838 3.689293,-2.84331 1.112527,-1.149101 1.632107,-1.843586 0.665551,-0.8896 -1.001667,0.988647 -2.207789,1.861619 -4.50817,3.262966 -1.090678,0.664413 -2.298878,1.570337 -3.057722,2.292711 -0.67288,0.64054 -1.389261,1.458914 -1.277089,1.458914 0.03103,0 0.284715,-0.210837 0.56374,-0.468529 z"
       id="path1"
       sodipodi:nodetypes="ssssssscssscsssssssscsssssscssssssssssssssssscsssssssssscsssscssssscsssssssssssssssssssssssssssssssssssssscsssscsssscsssssssssssssssssssssssscsssssssssssssssssssssssssssssssscssssssssssssscsssssssscssssssssssssscssssssssssssss" />
  </g>
</svg>
