<?xml version="1.0" encoding="UTF-8" standalone="no"?>
<!-- Created with Inkscape (http://www.inkscape.org/) -->

<svg
   version="1.1"
   id="svg1"
   width="1024"
   height="1024"
   viewBox="0 0 1024 1024"
   sodipodi:docname="icon.svg"
   inkscape:version="1.4 (86a8ad7, 2024-10-11)"
   xmlns:inkscape="http://www.inkscape.org/namespaces/inkscape"
   xmlns:sodipodi="http://sodipodi.sourceforge.net/DTD/sodipodi-0.dtd"
   xmlns="http://www.w3.org/2000/svg"
   xmlns:svg="http://www.w3.org/2000/svg">
  <defs
     id="defs1" />
  <sodipodi:namedview
     id="namedview1"
     pagecolor="#ffffff"
     bordercolor="#000000"
     borderopacity="0.25"
     inkscape:showpageshadow="2"
     inkscape:pageopacity="0.0"
     inkscape:pagecheckerboard="0"
     inkscape:deskcolor="#d1d1d1"
     showgrid="false"
     inkscape:zoom="0.76373057"
     inkscape:cx="206.87924"
     inkscape:cy="472.0251"
     inkscape:window-width="1366"
     inkscape:window-height="745"
     inkscape:window-x="-8"
     inkscape:window-y="-8"
     inkscape:window-maximized="1"
     inkscape:current-layer="g1" />
  <g
     inkscape:groupmode="layer"
     inkscape:label="Image"
     id="g1"
     style="display:inline">
    <a
       id="a1">
      <path
         style="fill:#000000"
         d="m 494,809.05728 c -0.825,-0.16513 -6.9,-0.84086 -13.5,-1.50164 -17.82617,-1.7847 -35.83461,-6.04505 -60,-14.19449 -9.86052,-3.32532 -11.51028,-4.02134 -28.76726,-12.13667 -35.52186,-16.70466 -74.04183,-46.61315 -97.61949,-75.79581 -9.57417,-11.85019 -11.68572,-14.82619 -23.30016,-32.83916 C 263.32843,660.98148 250,635.47373 250,632.75774 c 0,-0.65451 -0.86995,-3.09762 -1.93321,-5.42913 -4.35322,-9.54568 -12.62194,-41.45081 -14.964,-57.7391 -3.49488,-24.3057 -3.64564,-44.24505 -0.54819,-72.5 3.96212,-36.14249 15.21127,-73.84185 30.42416,-101.96075 12.24132,-22.62636 27.10303,-42.41147 47.02124,-62.59847 12.20049,-12.36514 19.21151,-18.03152 39.36142,-31.81232 38.00264,-25.99053 70.09009,-39.5065 111.63858,-47.02474 22.42419,-4.05768 53.95958,-6.64559 64,-5.25206 3.575,0.49618 7.4,0.8893 8.5,0.87361 7.30788,-0.10426 46.32953,5.54477 58.5,8.46884 8.26517,1.98579 10.70632,2.78097 31.29328,10.19348 19.81048,7.13294 60.38557,30.89428 77.70672,45.50615 3.025,2.55184 7.29173,5.97209 9.48163,7.60056 4.77608,3.5516 18.49302,17.22528 27.6285,27.54134 17.3857,19.63246 36.47031,51.06468 45.51591,74.96436 9.9481,26.28421 12.9453,36.6045 15.9731,55 0.7694,4.675 1.8999,10.975 2.5121,14 1.5661,7.73817 1.5761,56.61334 0.014,65.5 -9.4534,53.76046 -20.0204,85.8333 -34.5659,104.91415 -2.97091,3.89722 -6.53795,9.67498 -7.92678,12.83947 -1.38883,3.16448 -3.8876,7.43948 -5.55282,9.5 -1.66522,2.06051 -6.33548,8.24638 -10.37835,13.74638 -7.78343,10.58873 -28.60846,32.13948 -40.86417,42.28823 -13.98203,11.57829 -34.32771,24.90654 -51.83667,33.9577 -36.73539,18.99015 -56.44215,25.20913 -105.1153,33.17184 -5.73424,0.9381 -47.72198,1.38318 -51.8847,0.55 z m 149.88065,-95.95239 c 118.83169,-77.60344 96.73202,-28.98007 102.71522,-185.51539 2.23727,-58.53245 0.37295,-108.59262 0.49291,-111.15028 0.1628,-3.471 -0.43321,-5.75335 -2.35024,-9 -3.91238,-6.62595 -8.14063,-10.08571 -21.23857,-17.37845 -6.6,-3.67478 -18.525,-10.61094 -26.5,-15.41369 -7.975,-4.80276 -21.25,-12.68967 -29.5,-17.52647 -8.25,-4.83681 -20.175,-11.85652 -26.5,-15.59937 -6.325,-3.74285 -24.1,-13.74781 -39.5,-22.23324 -15.4,-8.48543 -36.27714,-20.06301 -46.39365,-25.72794 -18.68031,-10.46041 -31.77881,-15.94174 -38.10635,-15.94635 -6.93692,-0.005 -24.62163,6.91561 -38.5,15.06645 -4.4,2.58415 -22.625,12.7915 -40.5,22.68301 -17.875,9.89151 -36.55,20.35343 -41.5,23.24872 -4.95,2.89529 -18.675,10.78412 -30.5,17.53073 -35.53608,20.27468 -69.63563,40.95971 -73.85646,44.80185 -1.29605,1.17977 -3.65433,4.39503 -5.24062,7.14503 l -2.88416,5 -0.009,109.78984 -0.009,118.30069 c 229.82287,143.94423 -32.65763,-18.39517 227.84335,139.81532 3.28941,1.99776 132.03657,-67.89046 132.03657,-67.89046 z M 530,743.67479 c 0,-0.53135 1.26026,-4.23404 2.66745,-8.27568 16.80327,-48.26119 17.90803,-51.93656 28.95992,-82.18331 0.75416,-2.13055 3.37318,-8.65555 5.82003,-14.5 2.44685,-5.84446 7.87207,-19.40129 12.05605,-30.12629 4.18397,-10.725 9.39631,-23.96869 11.58297,-29.43044 2.18667,-5.46174 10.6171,-27.12987 11.21617,-29.64803 l 1.08922,-4.57847 13.92048,9.36708 c 7.65626,5.1519 16.0056,11.09653 18.55409,13.2103 2.54849,2.11378 9.13362,6.9103 14.63362,10.65895 5.5,3.74865 11.8,8.25597 14,10.01628 2.2,1.7603 7.375,5.43301 11.5,8.16157 4.125,2.72856 12.17487,8.8453 18.04605,13.39269 27.95265,21.65012 30.76339,16.15253 10.95395,31.13769 -7.37616,5.57981 -21.25,12.53063 -29.5,17.43658 -8.25,4.90595 -21.3,12.46343 -29,16.79442 -20.1291,11.32191 -83.07777,48.8524 -97.7006,58.24986 C 534.41729,742.60075 530,745.02488 530,743.67479 Z m 167.91581,-117.3788 -3.20791,-5.84137 c -2.40618,-4.3815 -3.97156,-6.66259 -5.42039,-5.85324 -130.54807,72.92721 -0.58392,-0.24867 -130.41621,72.73627 -3.37627,1.89797 -0.19517,18.60844 0.0786,22.25186 44.1768,-28.08325 90.48883,-54.3408 138.96591,-83.29352 z M 490.88978,738.30668 C 485.1754,735.40113 474.65,729.26897 467.5,724.67966 c -7.15,-4.58931 -18.85,-11.83574 -26,-16.10318 -37.81113,-22.56737 -68.10055,-40.28628 -77,-45.04397 -5.5,-2.94033 -14.59634,-8.29286 -20.21409,-11.89452 -5.61775,-3.60166 -13.71775,-8.47591 -18,-10.83165 -4.28225,-2.35575 -9.97553,-5.88545 -12.65173,-7.84377 l -4.86582,-3.56059 c 40.81462,-25.69363 79.9179,-54.37732 119.76446,-81.59792 0.79138,-0.53974 4.14475,8.93545 7.77425,18.28545 3.6295,9.35 10.478,26.45 15.21887,38 22.10801,53.8608 35.70342,89.5 34.14189,89.5 -0.80721,0 -30.97255,-17.14247 -35.16783,-19.98531 -2.2,-1.49077 -9.175,-5.54921 -15.5,-9.01874 -6.325,-3.46953 -18.925,-10.60332 -28,-15.85286 -9.075,-5.24954 -18.975,-10.8719 -22,-12.49414 -3.025,-1.62223 -10.29979,-5.81288 -16.16619,-9.31255 -11.99109,-7.15342 -24.41332,-13.21277 -24.50361,-11.99993 -1.59185,21.38204 -1.92374,19.1694 -0.88248,21.57894 157.7024,86.41131 -3.99196,-1.82162 153.33654,83.67767 4.69138,2.54951 2.41503,-1.65223 7.21574,22.36874 0.37753,1.88903 -2.68026,1.05861 -13.11022,-4.24465 z m 24.38529,-31.93386 c -2.01665,-2.5246 -4.61905,-8.39994 -8.30951,-18.76005 -13.64032,-38.29201 -26.4414,-71.95119 -35.02973,-92.10718 C 469.22112,589.13443 467,583.6178 467,583.24641 c 0,-0.37139 -2.0682,-5.50862 -4.596,-11.41607 -9.0673,-21.19022 -14.97245,-39.70303 -13.45006,-42.16631 0.80939,-1.30961 123.52282,-1.84532 130.26196,-0.56867 2.33276,0.44192 3.93541,1.39553 4.30561,2.56194 0.54427,1.71485 -7.91296,28.05199 -12.02002,37.43221 -2.70398,6.17572 -7.30425,17.85536 -12.01304,30.5 -8.99745,24.16111 -16.58122,43.43985 -19.66874,50 -1.16486,2.475 -3.56601,8.55 -5.33591,13.5 -10.48815,29.33305 -16.11522,43.89484 -17.08372,44.20938 -0.60495,0.19648 -1.56121,-0.22025 -2.12501,-0.92607 z M 308.03343,600.33951 c 0.0184,-0.6875 -0.25134,-14.3 -0.59938,-30.25 -0.34805,-15.95 -0.58393,-46.85837 -0.52419,-68.68527 0.0705,-25.73811 0.0596,-26.03312 0.76007,-52.39698 0.16873,-6.35007 -0.2357,-6.01269 0.71803,-6.01269 1.44971,0 14.55558,7.1593 18.6662,10.15681 2.50478,1.82652 8.81307,5.93481 14.01841,9.12954 5.20533,3.19473 15.65808,10.08359 23.22831,15.30859 35.42326,24.44925 41.46102,28.46078 49.30549,32.75894 4.6165,2.52948 8.39363,5.15527 8.39363,5.83507 0,0.67981 -2.1375,3.1212 -4.75,5.4253 -8.34375,7.35881 -47.87582,36.49566 -77.25,56.93661 -12.70465,8.84094 -29.41962,21.32136 -29.83334,22.2754 -0.5403,1.24597 -2.1696,0.87835 -2.13323,-0.48132 z M 720.5503,599.6709 c -0.31225,-0.50523 -8.55131,-6.45695 -18.30902,-13.22605 C 692.48358,579.67576 680.675,571.24863 676,567.71789 c -4.675,-3.53074 -14.8,-10.95013 -22.5,-16.48754 -13.6048,-9.78382 -29.59933,-22.00707 -38.25,-29.23121 -6.39373,-5.33938 -5.72734,-7.58465 3.54096,-11.93059 2.58997,-1.21444 7.10492,-4.39307 10.37286,-6.59356 101.17154,-68.12451 -4.12163,2.93011 93.61034,-63.44503 1.01845,-0.69169 1.56986,152.64818 0.72457,157.30955 -0.57693,3.18146 -1.81703,4.16204 -2.94843,2.33139 z M 452.99957,504.75618 C 452.44981,504.57285 452,503.50252 452,502.37768 c 0,-2.21585 7.04084,-21.06037 18.22862,-48.78817 3.88355,-9.625 9.20179,-22.9 11.8183,-29.5 2.61651,-6.6 7.82358,-18.64737 10.99819,-27 4.53066,-11.92049 8.94718,-21.06134 13.09458,-30.24999 1.11498,-2.6125 3.65721,-8.125 5.6494,-12.25 1.99219,-4.125 3.90003,-8.4 4.23964,-9.5 0.51195,-1.65819 1.06696,-1.12426 3.24743,3.1241 2.31876,4.51782 13.07371,30.89891 27.11476,66.51053 2.52304,6.39905 8.66684,21.24905 13.6529,33 15.1319,35.6623 15.7271,37.1123 18.38545,44.78969 2.558,7.38757 3.25085,12.01024 1.82073,12.14783 -2.78555,0.26799 -126.45478,0.35984 -127.25043,0.0945 z m 148.045,-15.32535 c -1.1204,-1.83772 -2.03878,-3.70243 -2.04083,-4.1438 -0.002,-0.44136 -4.96353,-12.92917 -11.02549,-27.75069 -6.06196,-14.82152 -12.19379,-30.2104 -13.62628,-34.19752 -1.43249,-3.98712 -4.6172,-11.73862 -7.07712,-17.22556 -8.09574,-18.05782 -24.84793,-60.73782 -30.0361,-76.52374 -6.4879,-29.52993 -9.30656,-24.19076 5.35703,-16.55782 4.38205,2.2318 9.30322,5.01257 10.93593,6.1795 1.63271,1.16692 8.76187,5.11352 15.84258,8.7702 7.0807,3.65669 13.94893,7.6579 15.5,8.51393 34.69781,19.14951 33.02119,17.88018 44.04496,24.09409 18.35109,10.26363 40.01646,22.93923 60.43022,35.35548 14.23255,9.08192 10.57781,6.89715 27.52534,16.74225 3.27545,1.90277 -0.22038,3.29148 -6.17416,8.78963 -1.21261,1.11981 -0.0297,0.0694 -57.26143,-32.32023 -3.93767,-2.22848 -11.09357,-5.82093 -15.7034,-8.41179 -86.96282,-48.87571 -71.7127,-42.85261 -81.73554,-43.69278 -5.90461,15.86751 -6.15641,15.78518 1.31088,21.30379 2.82332,2.07173 14.11412,8.45745 17.68912,10.38968 20.05841,10.84129 40.69188,22.22439 49.28538,27.18983 5.38196,3.10977 10.01269,5.65413 10.2905,5.65413 0.2778,0 1.72438,0.84201 3.21461,1.87113 5.2348,3.61503 26.79957,15.94091 35.20951,20.12486 11.12528,5.53483 16.91834,9.20806 16.96349,10.75608 0.041,1.40487 -10.48963,9.45063 -16.15794,12.34526 -2.03195,1.03765 -11.03195,6.8869 -20,12.99834 -20.39772,13.90037 -47.81489,31.97069 -49.47274,32.60686 -0.68813,0.26406 -2.16783,-1.02348 -3.28824,-2.86121 z M 414.46748,484.30172 C 407.88536,480.29343 399.8,475.0888 396.5,472.73587 c -10.45312,-7.45316 -34.04391,-23.39333 -45.21939,-30.55449 -5.92933,-3.79948 -17.22362,-11.38033 -25.09842,-16.84634 -13.83429,-9.60258 -14.25963,-10.00248 -12.59501,-11.84186 1.4671,-1.62114 10.3079,-5.9963 16.01152,-9.69716 68.03878,-44.14753 173.37076,-99.0648 173.84551,-98.29663 1.04768,1.69519 -1.72207,10.84841 -5.34181,17.65313 -3.4618,6.50782 -3.80184,6.82194 -8.71229,8.04828 -45.61276,26.39337 -46.02422,26.85714 -145.74856,85.4439 -3.80431,2.23498 13.04051,10.49515 16.76803,8.84828 C 374.95359,415.71626 485,353.18001 485,356.03276 c 0,2.86 -6.35483,20.3568 -12.73265,35.0569 -3.57936,8.25 -7.75226,18.15 -9.27311,22 -1.52086,3.85 -6.68931,16.45 -11.48545,28 -8.80258,21.19822 -13.93962,34.21444 -17.66124,44.75 -1.79169,5.0721 -2.34838,5.75 -4.72188,5.75 -1.58006,0 -7.63055,-3.00819 -14.65819,-7.28779 z"
         id="path1"
         sodipodi:nodetypes="sssssssssssssssssssssssscssssssssscsssssssssssssssscccscssssssscssssssssssscsssscsssssscssssssssssssssssssssssssssssssssssssssssssssssssssssssssssssssssssssssssssssssssssssssssssssssccssssssssssssssssssss" />
    </a>
  </g>
</svg>
