<?xml version="1.0" encoding="UTF-8" standalone="no"?>
<!-- Created with Inkscape (http://www.inkscape.org/) -->

<svg
   version="1.1"
   id="svg1"
   width="1444"
   height="1444"
   viewBox="0 0 1444 1444"
   sodipodi:docname="instagram.svg"
   inkscape:version="1.4 (86a8ad7, 2024-10-11)"
   xmlns:inkscape="http://www.inkscape.org/namespaces/inkscape"
   xmlns:sodipodi="http://sodipodi.sourceforge.net/DTD/sodipodi-0.dtd"
   xmlns="http://www.w3.org/2000/svg"
   xmlns:svg="http://www.w3.org/2000/svg">
  <defs
     id="defs1" />
  <sodipodi:namedview
     id="namedview1"
     pagecolor="#ffffff"
     bordercolor="#000000"
     borderopacity="0.25"
     inkscape:showpageshadow="2"
     inkscape:pageopacity="0.0"
     inkscape:pagecheckerboard="0"
     inkscape:deskcolor="#d1d1d1"
     inkscape:zoom="0.38296399"
     inkscape:cx="722"
     inkscape:cy="722"
     inkscape:window-width="1366"
     inkscape:window-height="745"
     inkscape:window-x="-8"
     inkscape:window-y="-8"
     inkscape:window-maximized="1"
     inkscape:current-layer="g1" />
  <g
     inkscape:groupmode="layer"
     inkscape:label="Image"
     id="g1">
    <path
       style="fill:#000000"
       d="M 663.05485,1450.2933 C 505.92226,1441.412 354.9224,1380.3609 234.38819,1276.9782 213.6087,1259.1555 175.17527,1220.7416 157.81595,1200.4448 17.982876,1036.9499 -41.943034,822.44483 -6.8250641,611.11152 14.773066,481.138 71.517386,359.84009 157.84389,259.11152 c 17.5986,-20.53462 56.00968,-58.9457 76.5443,-76.5443 C 338.16346,93.629637 464.63967,35.765897 598.76804,15.860937 c 34.44487,-5.1117 47.75286,-5.68638 116.95348,-5.05037 69.47946,0.63857 70.63871,0.71812 111.57017,7.65657 127.72591,21.65129 248.52711,78.54111 348.42981,164.088693 20.1821,17.28215 60.0383,57.16041 77.1796,77.22235 93.7484,109.72214 150.3986,238.86415 169.0325,385.33334 3.99,31.36347 5.0342,115.45091 1.8543,149.33331 -14.2588,151.9319 -72.4052,289.87257 -170.8608,405.33327 -16.9199,19.8423 -56.8074,59.7336 -77.2056,77.2129 -142.7885,122.356 -324.89475,183.9154 -512.66665,173.3023 z m 235.33334,-287.686 c 36.91113,-3.511 63.26816,-8.9623 88.21763,-18.2457 65.80958,-24.487 114.16158,-75.0992 136.30178,-142.6736 9.7965,-29.89987 13.8585,-55.93297 16.1094,-103.24317 1.7765,-37.3403 1.7691,-301.54211 -0.01,-338.66665 -3.0849,-64.39001 -10.3653,-97.16735 -30.6521,-138 -26.5035,-53.34627 -73.5168,-93.00356 -132.63338,-111.88124 -23.74648,-7.58295 -43.69792,-11.34381 -74.66667,-14.07474 -60.33766,-5.32077 -332.52459,-5.31896 -394.66666,0.003 -79.5195,6.80972 -137.48153,34.23772 -179.8242,85.09396 -28.70328,34.47446 -46.4914,78.1164 -53.4245,131.07338 -4.42776,33.82049 -5.32381,70.01821 -5.34168,215.78599 -0.0207,169.1505 1.26717,202.739 9.28102,242.0498 15.6363,76.70157 59.39732,134.77617 125.00753,165.89547 38.67679,18.3446 76.71004,26.0801 140.30183,28.5355 30.50841,1.178 341.41687,-0.2644 356,-1.6516 z m -343.33334,-76.2284 c -36.63702,-1.3485 -57.80044,-3.2469 -75.33333,-6.7576 -68.95465,-13.8071 -112.37411,-57.0234 -125.79194,-125.20337 -4.2228,-21.4573 -5.33275,-34.3892 -6.97856,-81.3064 -1.84845,-52.6942 -0.8464,-294.29802 1.35078,-325.6852 2.68951,-38.42009 8.92252,-65.19499 20.86948,-89.64815 7.34236,-15.02842 15.99344,-26.5665 29.83307,-39.78879 28.977,-27.68446 64.23884,-40.59017 122.88418,-44.97515 25.2517,-1.8881 300.70293,-2.84351 338.49966,-1.1741 47.63832,2.10411 71.9457,5.58382 94.62722,13.54632 62.34649,21.88716 96.67999,70.47319 103.91939,147.05839 3.194,33.78982 4.4239,109.41001 3.7147,228.41308 -0.7207,120.9377 -1.8156,155.7286 -5.6918,180.8589 -7.2442,46.9648 -25.3395,81.30247 -55.7275,105.74837 -29.09399,23.4049 -62.82307,34.0101 -120.17535,37.7857 -26.50744,1.7451 -284.94104,2.6392 -326,1.128 z M 743.40386,949.83573 c 93.16391,-17.1702 164.69024,-88.8726 181.75509,-182.2024 2.93601,-16.0574 3.89204,-45.8769 2.00448,-62.52181 -5.9395,-52.37576 -27.28363,-96.61546 -64.70212,-134.10721 -36.87688,-36.9491 -80.5921,-58.37225 -131.93476,-64.65618 -18.30683,-2.24061 -53.4845,-0.86451 -70.80503,2.76978 -88.20616,18.50792 -156.81902,87.12078 -175.32694,175.32694 -3.63429,17.32053 -5.01039,52.49818 -2.76978,70.80498 12.43615,101.6093 90.60424,181.3408 192.09672,195.939 16.18098,2.3274 53.66129,1.5996 69.68234,-1.3531 z m -69.37154,-78.175 c -49.28562,-10.35 -90.22334,-46.224 -107.42033,-94.1332 -10.50065,-29.2539 -10.49979,-67.59304 0.002,-96.832 21.15662,-58.90301 75.15694,-97.21803 137.10735,-97.2822 39.38787,-0.0408 72.76233,13.24294 101.01693,40.20689 29.73592,28.37743 44.98325,64.04253 44.98325,105.22011 0,40.2014 -14.30309,74.8908 -42.50839,103.0961 -21.36162,21.3616 -46.89435,34.8778 -76.49209,40.4924 -14.99351,2.8442 -41.17663,2.4895 -56.68872,-0.7681 z M 960.06779,543.0005 c 25.53853,-12.49484 36.26413,-43.28967 24.15483,-69.3522 -4.60537,-9.91203 -17.47342,-22.13703 -27.07977,-25.72654 -27.35095,-10.21995 -55.1704,0.83707 -67.45359,26.80987 -9.22712,19.51073 -5.03716,42.77079 10.50406,58.312 15.41436,15.41436 40.27106,19.54793 59.87447,9.95687 z"
       id="path1" />
  </g>
</svg>
