<?xml version="1.0" encoding="UTF-8" standalone="no"?>
<!-- Created with Inkscape (http://www.inkscape.org/) -->

<svg
   version="1.1"
   id="svg1"
   width="910.22223"
   height="910.22223"
   viewBox="0 0 910.22223 910.22223"
   sodipodi:docname="wap1.svg"
   inkscape:version="1.4 (86a8ad7, 2024-10-11)"
   xmlns:inkscape="http://www.inkscape.org/namespaces/inkscape"
   xmlns:sodipodi="http://sodipodi.sourceforge.net/DTD/sodipodi-0.dtd"
   xmlns="http://www.w3.org/2000/svg"
   xmlns:svg="http://www.w3.org/2000/svg">
  <defs
     id="defs1" />
  <sodipodi:namedview
     id="namedview1"
     pagecolor="#ffffff"
     bordercolor="#000000"
     borderopacity="0.25"
     inkscape:showpageshadow="2"
     inkscape:pageopacity="0.0"
     inkscape:pagecheckerboard="0"
     inkscape:deskcolor="#d1d1d1"
     inkscape:zoom="0.35355339"
     inkscape:cx="957.42258"
     inkscape:cy="405.87929"
     inkscape:window-width="1366"
     inkscape:window-height="745"
     inkscape:window-x="-8"
     inkscape:window-y="-8"
     inkscape:window-maximized="1"
     inkscape:current-layer="g1" />
  <g
     inkscape:groupmode="layer"
     inkscape:label="Image"
     id="g1">
    <path
       style="fill:#000000;fill-opacity:1"
       d="m 28.576251,870.25171 c 0,-1.88542 13.15574,-51.47782 29.234978,-110.20535 L 87.046207,653.26904 77.348271,634.14105 C 30.487244,541.71344 18.882281,434.43171 44.894614,334.12417 87.019778,171.68309 221.5287,49.215263 388.57625,21.208552 c 36.35417,-6.095036 97.78686,-6.129865 135.11112,-0.0766 87.14284,14.132861 168.32452,55.355317 231.02011,117.307448 81.77048,80.80083 125.65512,185.84851 125.93879,301.46255 0.12205,49.74304 -5.99856,89.06812 -20.89051,134.22223 C 838.4075,638.8545 804.7885,693.169 755.74653,742.16035 628.03207,869.74302 436.81651,902.16626 271.63147,824.24876 l -18.68576,-8.81405 -110.8514,29.09471 c -60.968264,16.00209 -111.451392,29.10722 -112.184726,29.12251 -0.733333,0.0153 -1.333333,-1.51481 -1.333333,-3.40022 z M 149.63456,837.3417 c 54.35985,-14.2363 100.90009,-25.88419 103.42275,-25.88419 2.52266,0 349.07057,-27.77949 357.69917,-23.50908 34.60531,17.12663 -29.47794,-1.17892 13.49037,6.5088 19.81494,3.54521 -7.55368,6.54828 31.04751,6.53145 49.95373,-0.0218 -204.42149,3.27692 -162.86154,-8.1513 C 638.11649,752.77706 827.20993,688.88804 864.15187,541.23529 873.21666,505.00435 839.40789,509.40252 839.37004,466.3034 839.33234,423.34537 817.34833,425.937 808.28803,388.89569 771.58415,238.8388 688.80802,136.98153 539.49126,99.49279 414.79835,68.186323 308.73367,116.21523 203.62145,194.35453 c -21.9703,16.33248 -96.30843,160.71409 -113.132722,183.25696 -43.281129,57.99243 70.859922,197.5162 59.603142,270.40298 -4.34038,28.10368 -35.4448,-10.27803 -31.0749,17.67055 7.2066,46.09122 -99.663687,245.095 -87.752935,202.95577 L 92.400151,652.3464 113.78354,754.53943 c 12.47868,59.63665 245.42983,28.76183 245.42983,29.34244 0,0.5806 -321.503786,83.16385 -316.859341,81.80845 4.644444,-1.35543 52.920685,-14.11231 107.280531,-28.34862 z m 154.11147,-15.06797 c -62.13808,-5.95468 16.88659,-49.40027 -29.88769,-77.56613 l -9.82903,-5.9187 96.13895,44.71181 c 32.94471,15.32176 -259.68633,55.76865 -261.427429,55.76865 -1.7411,0 31.168749,-68.21267 31.168749,-69.78899 0,-1.57631 7.64126,-30.83762 16.98057,-65.02513 L 163.87072,642.29613 114.37228,832.8311 C 101.55204,882.18024 99.403024,553.73803 93.315834,504.37351 90.069634,478.04819 44.296847,501.46288 49.132397,477.55122 63.779567,405.12137 155.89734,241.04879 206.19302,190.91125 261.86203,135.41727 330.53931,101.37756 409.0207,90.380247 c 31.15478,-4.365605 87.45956,-2.597012 117.33333,3.685566 71.22653,14.979237 128.69675,45.945387 179.71937,96.836537 61.50954,61.35107 130.81526,37.33516 136.45367,123.32267 6.97887,106.42975 58.00101,237.46036 -17.80586,310.88757 -29.7017,28.76933 -56.83193,93.28885 -93.38847,110.94374 -54.19372,26.17271 -373.46086,91.40428 -427.58671,86.2174 z M 493.46514,788.26846 C 624.24398,773.33883 735.13857,687.66684 782.14392,565.24866 852.88482,381.01491 754.36087,172.80898 566.84619,110.27032 507.23463,90.38907 446.45947,86.754084 385.39215,99.417486 264.01489,124.58723 163.3775,214.57987 124.77688,332.4666 92.546258,430.89929 104.85259,534.96373 159.31213,624.50161 l 10.09639,16.59965 -17.11492,62.33119 c -9.41321,34.28216 -16.79779,62.64833 -16.41018,63.03593 0.38761,0.38761 28.27471,-6.53127 61.97134,-15.37529 33.69663,-8.84401 63.09086,-16.08002 65.32051,-16.08002 2.22965,0 11.00062,4.00918 19.49105,8.90929 40.01951,23.09663 95.25844,40.87243 139.68771,44.95128 15.82565,1.45288 56.08432,1.11026 71.11111,-0.60518 z M 530.79848,641.878 C 514.00614,637.37399 490.1242,628.92032 467.68737,619.53806 399.39695,590.98153 327.84199,532.35979 279.42624,447.00881 253.44972,401.21543 236.09799,369.09783 240.25478,332.14108 c 3.14743,-27.98288 11.86124,-47.41824 31.06859,-69.29571 14.32367,-16.31488 21.52519,-19.25981 46.06852,-18.83892 23.13061,0.39667 25.95966,1.78777 33.46085,16.45336 9.50569,18.5846 36.83462,87.21801 36.83462,92.50585 0,6.96431 -3.65434,13.8421 -15.81282,29.76109 -5.48072,7.17587 -12.34527,16.22742 -15.25454,20.11456 l -5.28958,7.06753 5.28958,9.81925 c 7.99992,14.85054 30.71695,44.24942 46.27953,59.89189 23.4411,23.56144 45.94124,39.30011 79.01006,55.26691 28.19697,13.61449 28.6859,13.55289 44.85785,-5.6516 7.20457,-8.55556 16.83411,-20.46262 21.39899,-26.46014 9.29983,-12.21847 13.6837,-14.19056 24.92088,-11.21066 4.11892,1.09226 27.65507,11.84078 52.30255,23.88559 39.26321,19.18727 44.96264,22.49343 46.01685,26.69375 2.00836,8.00196 -0.50633,33.00848 -4.63867,46.12757 -3.37618,10.71853 -5.47306,13.92177 -15.71066,24.00001 -13.27041,13.06383 -26.59497,21.5199 -44.27392,28.09723 -10.07924,3.74991 -15.80125,4.56562 -35.98498,5.12988 -21.09037,0.58961 -25.93976,0.15068 -40,-3.62052 z m 51.55555,-1.14911 c 33.25083,-3.76266 -14.58872,-63.38004 -5.57731,-87.58728 4.64505,-12.47796 92.78049,-0.64477 91.09962,-7.34189 -1.03817,-4.13637 -8.32139,46.37679 -20.54851,7.67942 -15.89717,-50.31261 41.90497,102.02129 -80.64204,89.45933 -154.90251,-15.87863 -12.40628,-139.70914 -19.27498,-130.64703 -6.50766,8.58578 -16.63086,20.72321 -22.49599,26.97207 -10.46078,11.14517 -10.81102,11.34487 -18.39011,10.4858 -10.11405,-1.1464 -44.55624,-17.80163 -64.6793,-31.27701 -32.62735,-21.84885 -18.04484,74.67727 -52.81025,50.06066 -22.79274,-16.13904 -121.32654,-114.90663 -111.22964,-128.05361 20.15938,-26.24911 101.75779,-76.66237 103.96373,-81.93144 2.35124,-5.61615 1.81109,-7.29255 -17.17668,-53.30913 -11.95421,-28.97085 -7.35617,-31.14872 -10.07931,-33.8736 -4.03109,-4.03366 42.4431,94.22944 27.16829,93.67118 -15.26093,-0.55776 -83.67536,73.89764 -92.07638,78.00788 -15.92438,7.79107 3.86276,-18.56337 -4.57878,5.9932 -6.60543,19.21533 -46.462,-88.34922 -36.36776,-68.69104 20.02347,38.995 51.43677,100.12164 101.603,150.33604 40.47386,40.51273 38.90856,-35.58306 83.09227,-16.84089 252.52704,107.11877 109.45416,127.34138 129.44458,128.49306 1.95555,0.11266 10.75555,-0.60991 19.55555,-1.60572 z"
       id="path1"
       sodipodi:nodetypes="sscssssssssscsssssssssssssssssscsssssscsssscssssssssssssssssscssssssssssssssssscsssssssssssssssssssssssssssssssssss" />
  </g>
</svg>
